HIERARCHY
ROOT Hips
{
	OFFSET -14.64140 90.27770 -84.91600
	CHANNELS 6 Xposition Yposition Zposition Zrotation Xrotation Yrotation
	JOINT Spine
	{
		OFFSET 0.00000 13.20850 -1.60436
		CHANNELS 3 Zrotation Xrotation Yrotation
		JOINT Spine1
		{
			OFFSET 0.00000 8.61716 0.00000
			CHANNELS 3 Zrotation Xrotation Yrotation
			JOINT Spine2
			{
				OFFSET 0.00000 8.61717 0.00000
				CHANNELS 3 Zrotation Xrotation Yrotation
				JOINT Spine3
				{
					OFFSET 0.00000 8.61717 0.00000
					CHANNELS 3 Zrotation Xrotation Yrotation
					JOINT Neck
					{
						OFFSET 0.00000 11.07920 1.10792
						CHANNELS 3 Zrotation Xrotation Yrotation
						JOINT Neck1
						{
							OFFSET 0.00000 7.08032 0.00000
							CHANNELS 3 Zrotation Xrotation Yrotation
							JOINT Head
							{
								OFFSET 0.00000 7.08031 0.00000
								CHANNELS 3 Zrotation Xrotation Yrotation
								End site
								{
									OFFSET 0.00000 0.00000 0.00000
								}
							}
						}
					}
					JOINT RightShoulder
					{
						OFFSET -0.01000 7.91373 5.19711
						CHANNELS 3 Zrotation Xrotation Yrotation
						JOINT RightArm
						{
							OFFSET -18.41580 0.00000 0.00000
							CHANNELS 3 Zrotation Xrotation Yrotation
							JOINT RightForeArm
							{
								OFFSET -29.11090 0.00000 0.00000
								CHANNELS 3 Zrotation Xrotation Yrotation
								JOINT RightHand
								{
									OFFSET -24.65040 0.00000 0.00000
									CHANNELS 3 Zrotation Xrotation Yrotation
									JOINT RightHandThumb1
									{
										OFFSET -5.35114 -0.85590 3.97906
										CHANNELS 3 Zrotation Xrotation Yrotation
										JOINT RightHandThumb2
										{
											OFFSET -4.52789 0.00000 0.00000
											CHANNELS 3 Zrotation Xrotation Yrotation
											JOINT RightHandThumb3
											{
												OFFSET -2.46976 0.00000 0.00000
												CHANNELS 3 Zrotation Xrotation Yrotation
												End site
												{
													OFFSET 0.00000 0.00000 0.00000
												}
											}
										}
									}
									JOINT RightHandIndex1
									{
										OFFSET -14.26970 0.00000 2.88139
										CHANNELS 3 Zrotation Xrotation Yrotation
										JOINT RightHandIndex2
										{
											OFFSET -5.48836 0.00000 0.00000
											CHANNELS 3 Zrotation Xrotation Yrotation
											JOINT RightHandIndex3
											{
												OFFSET -3.01859 0.00000 0.00000
												CHANNELS 3 Zrotation Xrotation Yrotation
												End site
												{
													OFFSET 0.00000 0.00000 0.00000
												}
											}
										}
									}
									JOINT RightHandMiddle1
									{
										OFFSET -14.26970 0.00000 -0.09147
										CHANNELS 3 Zrotation Xrotation Yrotation
										JOINT RightHandMiddle2
										{
											OFFSET -6.17441 0.00000 0.00000
											CHANNELS 3 Zrotation Xrotation Yrotation
											JOINT RightHandMiddle3
											{
												OFFSET -3.56743 0.00000 0.00000
												CHANNELS 3 Zrotation Xrotation Yrotation
												End site
												{
													OFFSET 0.00000 0.00000 0.00000
												}
											}
										}
									}
									JOINT RightHandRing1
									{
										OFFSET -12.69180 0.00000 -3.06433
										CHANNELS 3 Zrotation Xrotation Yrotation
										JOINT RightHandRing2
										{
											OFFSET -5.62556 0.00000 0.00000
											CHANNELS 3 Zrotation Xrotation Yrotation
											JOINT RightHandRing3
											{
												OFFSET -3.56744 0.00000 0.00000
												CHANNELS 3 Zrotation Xrotation Yrotation
												End site
												{
													OFFSET 0.00000 0.00000 0.00000
												}
											}
										}
									}
									JOINT RightHandPinky1
									{
										OFFSET -11.11390 0.00000 -6.03719
										CHANNELS 3 Zrotation Xrotation Yrotation
										JOINT RightHandPinky2
										{
											OFFSET -4.52789 0.00000 0.00000
											CHANNELS 3 Zrotation Xrotation Yrotation
											JOINT RightHandPinky3
											{
												OFFSET -2.46976 0.00000 0.00000
												CHANNELS 3 Zrotation Xrotation Yrotation
												End site
												{
													OFFSET 0.00000 0.00000 0.00000
												}
											}
										}
									}
								}
							}
						}
					}
					JOINT LeftShoulder
					{
						OFFSET 0.01000 7.91373 5.19711
						CHANNELS 3 Zrotation Xrotation Yrotation
						JOINT LeftArm
						{
							OFFSET 18.41580 0.00000 0.00000
							CHANNELS 3 Zrotation Xrotation Yrotation
							JOINT LeftForeArm
							{
								OFFSET 29.11090 0.00000 0.00000
								CHANNELS 3 Zrotation Xrotation Yrotation
								JOINT LeftHand
								{
									OFFSET 24.65040 0.00000 0.00000
									CHANNELS 3 Zrotation Xrotation Yrotation
									JOINT LeftHandThumb1
									{
										OFFSET 5.35114 -0.85590 3.97906
										CHANNELS 3 Zrotation Xrotation Yrotation
										JOINT LeftHandThumb2
										{
											OFFSET 4.52789 0.00000 0.00000
											CHANNELS 3 Zrotation Xrotation Yrotation
											JOINT LeftHandThumb3
											{
												OFFSET 2.46977 0.00000 0.00000
												CHANNELS 3 Zrotation Xrotation Yrotation
												End site
												{
													OFFSET 0.00000 0.00000 0.00000
												}
											}
										}
									}
									JOINT LeftHandIndex1
									{
										OFFSET 14.26970 0.00000 2.88139
										CHANNELS 3 Zrotation Xrotation Yrotation
										JOINT LeftHandIndex2
										{
											OFFSET 5.48836 0.00000 0.00000
											CHANNELS 3 Zrotation Xrotation Yrotation
											JOINT LeftHandIndex3
											{
												OFFSET 3.01859 0.00000 0.00000
												CHANNELS 3 Zrotation Xrotation Yrotation
												End site
												{
													OFFSET 0.00000 0.00000 0.00000
												}
											}
										}
									}
									JOINT LeftHandMiddle1
									{
										OFFSET 14.26970 0.00000 -0.09147
										CHANNELS 3 Zrotation Xrotation Yrotation
										JOINT LeftHandMiddle2
										{
											OFFSET 6.17440 0.00000 0.00000
											CHANNELS 3 Zrotation Xrotation Yrotation
											JOINT LeftHandMiddle3
											{
												OFFSET 3.56744 0.00000 0.00000
												CHANNELS 3 Zrotation Xrotation Yrotation
												End site
												{
													OFFSET 0.00000 0.00000 0.00000
												}
											}
										}
									}
									JOINT LeftHandRing1
									{
										OFFSET 12.69180 0.00000 -3.06433
										CHANNELS 3 Zrotation Xrotation Yrotation
										JOINT LeftHandRing2
										{
											OFFSET 5.62556 0.00000 0.00000
											CHANNELS 3 Zrotation Xrotation Yrotation
											JOINT LeftHandRing3
											{
												OFFSET 3.56744 0.00000 0.00000
												CHANNELS 3 Zrotation Xrotation Yrotation
												End site
												{
													OFFSET 0.00000 0.00000 0.00000
												}
											}
										}
									}
									JOINT LeftHandPinky1
									{
										OFFSET 11.11390 0.00000 -6.03719
										CHANNELS 3 Zrotation Xrotation Yrotation
										JOINT LeftHandPinky2
										{
											OFFSET 4.52789 0.00000 0.00000
											CHANNELS 3 Zrotation Xrotation Yrotation
											JOINT LeftHandPinky3
											{
												OFFSET 2.46976 0.00000 0.00000
												CHANNELS 3 Zrotation Xrotation Yrotation
												End site
												{
													OFFSET 0.00000 0.00000 0.00000
												}
											}
										}
									}
								}
							}
						}
					}
					JOINT pCube4
					{
						OFFSET 0.00000 10.91090 1.10792
						CHANNELS 3 Zrotation Xrotation Yrotation
						End site
						{
							OFFSET 0.00000 0.00000 0.00000
						}
					}
				}
			}
		}
	}
	JOINT RightUpLeg
	{
		OFFSET -9.98441 0.00000 0.00000
		CHANNELS 3 Zrotation Xrotation Yrotation
		JOINT RightLeg
		{
			OFFSET 0.00000 -42.11790 0.00000
			CHANNELS 3 Zrotation Xrotation Yrotation
			JOINT RightFoot
			{
				OFFSET 0.00000 -45.00020 -0.00001
				CHANNELS 3 Zrotation Xrotation Yrotation
				JOINT RightForeFoot
				{
					OFFSET 0.00000 -3.74820 0.00000
					CHANNELS 3 Zrotation Xrotation Yrotation
					JOINT RightToeBase
					{
						OFFSET 0.00000 0.06325 14.43120
						CHANNELS 3 Zrotation Xrotation Yrotation
						End site
						{
							OFFSET 0.00000 0.00000 0.00000
						}
					}
				}
			}
		}
	}
	JOINT LeftUpLeg
	{
		OFFSET 9.98441 0.00000 0.00000
		CHANNELS 3 Zrotation Xrotation Yrotation
		JOINT LeftLeg
		{
			OFFSET 0.00000 -42.11800 0.00000
			CHANNELS 3 Zrotation Xrotation Yrotation
			JOINT LeftFoot
			{
				OFFSET 0.00000 -45.00070 0.00000
				CHANNELS 3 Zrotation Xrotation Yrotation
				JOINT LeftForeFoot
				{
					OFFSET 0.00000 -3.74824 0.00000
					CHANNELS 3 Zrotation Xrotation Yrotation
					JOINT LeftToeBase
					{
						OFFSET 0.00000 0.06325 14.43110
						CHANNELS 3 Zrotation Xrotation Yrotation
						End site
						{
							OFFSET 0.00000 0.00000 0.00000
						}
					}
				}
			}
		}
	}
}
MOTION
Frames: 4
Frame Time: 0.050000
0.009483663188691739 0.010654527870384354 0.0363731504255293 0.03171635397806744 -0.012548571902014059 0.03833383428767129 -1.993335150598732 1.850981799868133 -0.8762020966264819 -1.0324750803814964 3.954804267898034 0.33958932846096557 -1.2094342128473012 -1.4659319843959908 -1.2371523036945817 0.7023089242467638 0.5767391997858924 -0.8683295063422658 0.1156977043861043 12.335436809861815 -1.5123132125412604 -0.15464799967693646 -1.119372496497735 -5.275642734912326 0.4873076300290649 -16.932273222367655 -0.4380382690667939 -4.1012367054910195 1.399813827877932 -14.917353500835002 70.98737777155341 27.31936374874642 3.6410306802260712 -0.9343965468633666 5.345649422912921 39.428885200109434 22.76757456351784 -0.11857101903994224 -5.510452770121947 4.526537063248739 -0.08712261349732317 -1.5446701334333817 0.032101461984460206 -0.03671405430661067 -56.18450342692552 0.030416333157240065 0.006981594276025725 -56.266173393851574 -38.78883946415595 0.047412520354967035 -0.02869092113748308 0.03376206323953784 -0.04829452416126038 0.030887081138404545 -0.004289913654031707 0.021453206407370768 -0.025416218374431754 -36.65503926216946 -0.039144942114071046 -0.030649247408337778 0.047792337615726155 0.024916895277506207 0.03489984803011824 0.04729424611488682 0.019631242958568034 0.03967504883998299 -19.776352474119385 -0.015161432733380093 0.008131745182533234 0.047228941168512915 0.00903672050973131 0.03317595500759517 -0.03982318644853484 0.04831225397149339 -0.04235956714749546 24.08038089511247 0.033517704385394385 -0.015574183244338945 28.895056922099972 0.001948862760997952 0.045265424869959534 28.89859746602027 -0.011385810321675491 0.04342987448894639 4.887878558808037 1.17870644285281 12.987159727648326 -68.11684706913206 30.1839899970373 -9.170908766521949 -0.25671041279518264 -2.393635792572772 -55.22147555697669 -19.000826909431094 -7.7128926724347835 7.830881703583185 -0.4539886304716867 0.08383282136436834 -8.161816687318519 0.03184530778583982 -0.003418583504174913 44.56580473575803 -0.02182672267100287 -0.010392877234530723 44.54581652625356 12.500254164967904 -0.00886145212433906 -0.014956016856871542 -0.011714977528374033 0.03351513338200765 -0.010991536332632185 -0.03511758877082897 0.020199752485829628 -0.024498934532352287 11.099613763373236 0.03457238839010631 0.044797894295392104 0.04688346842307078 -0.0017282152503808764 -0.017662528879148116 0.015363912309247186 0.008429013443948384 0.04323019431638245 4.794229312383954 0.005045388451598842 -0.03938151872438838 0.008753278368108451 0.04539962816786172 -0.0017774122153369665 0.025902534576732212 -0.04664916769194024 -0.045774172767056476 -5.6210903973173165 -0.02456738689062475 -0.007283036666551955 -6.7077425088059845 0.028109085771946336 -0.03806534594970137 -6.762565788468112 -0.03400447682892398 0.024988322494791958 -0.04312775186664058 -0.045959544681358634 0.010633542025379137 8.070362826289768 3.49135340903608 -19.235690808600534 0.02080020040055957 10.401040394072085 0.02538914822852859 -5.658961249110928 -15.690648251110673 3.1781819090218053 -0.03956485179192057 -0.014539038208577507 -0.028912863938466395 -0.03884740712006462 4.705871040336756 0.045866909724243406 12.437401915908051 -8.209767957761263 6.9097432025303664 0.0034950250642611473 46.334244651456174 -0.028172722838405915 -4.28976160147231 -14.700018942444032 -3.7970113637602694 0.039814546409531526 0.01357302887998408 -0.027164271442397 -0.0179442912872343 -10.760850729892237 -0.0008943822359479049 
-0.04541348405754134 0.015961057951377196 0.0006977805310787477 -0.030971781216072188 -0.012486139102509154 -0.013559017014297355 -1.8001154289984818 1.7607886030357909 -0.9035955665603549 -1.0180284608955719 3.93721241408968 0.3996132425706377 -1.1626918743750547 -1.3991530384999664 -1.221849902144269 0.7670877199942931 0.5588729971421615 -0.8074650366780995 0.18016477337884204 12.242208580729566 -1.4317938422227312 -0.05488134932302089 -1.0344823200953441 -5.065774145194801 0.5059600980028249 -16.72811120274141 -0.41928557137379335 -4.036900773270661 1.367333215658537 -15.050500798370905 70.73453838897278 26.79570693369557 2.991132630358124 -0.7909049144063983 4.7818167816724415 39.4147450500306 22.523376516206437 -0.12221459703796661 -5.36458647520841 4.523571233328032 -0.13860626323034267 -1.5460876301635846 0.045243118617345125 0.030641813880135628 -56.23924729761756 -0.023644234364111706 0.03312381894027125 -56.22229697887264 -38.77089097933614 0.037348229955789715 0.010593890535032976 -0.028746322758480825 -0.03900987458887919 -0.015853364279351356 0.023929793665398325 0.049626090528919455 -0.04152414969171086 -36.67700381548979 0.020684669942460165 0.03827972589963271 -0.029378997433090064 -0.017876158739298216 0.0066353228206879585 -0.01069586255693409 -0.0175034281654046 -0.04970323209401511 -19.775763029849625 -0.0320735633424853 -0.004534162621103321 0.0035252948911358647 0.04282454322782149 -0.0007222967252698448 0.04859115882274006 0.007299517188079765 -0.032420160051959974 24.0565640576923 0.013047187995965366 0.009468404613719778 28.86897099376706 -0.0014802004754744568 0.04166548798001048 28.868852434194697 0.0056015329293118594 0.023107484590928384 4.70239200601108 1.1798523452039331 12.99205312441477 -68.14849023167072 30.39318516770501 -8.423368103935244 2.451558112846027 -4.690662219912485 -53.928650911706185 -18.38814782727705 -6.454954914753025 7.029727793260972 -0.5055076974019943 0.03783215104522229 -8.07746306359284 0.01964508437987568 0.03316119468499532 44.590389632616564 -0.011962407642901369 0.017203595523328733 44.5767896070966 12.45639239343243 -0.015060343933969012 -0.021872198909467223 -0.025067626742222314 -0.01375537015221935 0.020427257593950403 -0.019394686313193757 -0.013441516260627747 -0.04821061751999495 11.14366529916314 -0.03895803820259437 -0.019640676345978138 -0.004557841327456703 -0.009176977805336661 0.032584289818355795 0.013833013905543479 -0.018253218453155376 -0.03205796491726886 4.745588956936455 -0.04446564957503657 -0.026341716634751752 -0.018092346980975307 -0.0075268475127623505 0.017566619683870424 -0.004324806849283081 0.004144829055139916 0.02054492891673595 -5.597303450920604 0.024118897806697202 -0.023254250515293486 -6.726434880646607 0.007486212995408424 -0.02968326333474953 -6.6811598267348185 0.02544303616953173 0.015990301227432845 0.01609773060405256 -0.006128019836728459 -0.022218455717791404 8.07731921536365 3.5108135641461313 -19.1838074038636 0.01296323025291394 10.378844048486242 -0.005312474176309957 -5.599599397004449 -15.634144133204327 3.187574690957235 -0.013697414326125588 0.005177841982944305 -0.005172105972938265 0.007650175070208707 4.706424052251329 -0.0101128318085716 12.507799330173876 -8.23158492167769 6.896931667717092 -0.030346813186768733 46.36367741801346 -0.023650387936558312 -4.303281462250197 -14.705160122410517 -3.8852002952842914 -0.025495396132701954 0.014275621809179209 0.010600895597163274 0.012455303761588958 -10.784923338096185 -0.005092801535941094 
0.042913913124472215 -0.0021239538179034065 -0.015692932950473734 0.025992200749354717 -0.014664069038045811 0.03793696254127821 -1.8322455037710716 1.7299132786515916 -0.8940792409651424 -1.0062007419828602 3.922746413770288 0.3350058501466773 -1.1206689048759015 -1.4068151635006492 -1.1435365704173284 0.8220662617919031 0.5687874796496455 -0.8121088795062268 0.17472225918424358 12.043692000631241 -1.5022174492520373 -0.05279359744581048 -0.9711682878418281 -5.068608651839278 0.5140863797212133 -16.64560334079048 -0.3862218203658372 -3.903724630096205 1.3573570489169 -15.172765605248491 70.84546068350947 26.424638253921618 2.342733999829966 -0.8488692227759973 4.474729722124014 39.38093159256763 22.281521603125952 -0.11458755860848173 -5.135631328672639 4.541109652286428 -0.11925569371721947 -1.553687995900965 -0.0010278539792467321 -0.009144915097755526 -56.21362230196611 -0.016521959096094583 0.03189884448466234 -56.213167072518935 -38.78186087735804 -0.04260072769159351 0.02233074480361026 0.02296130531261517 -0.01525019107624957 -0.005112964182718978 0.01134529626862008 0.00886335979388452 0.025966355872650927 -36.69528490178695 -0.019700255278953836 0.01639592473358655 0.015788768397924285 0.01476055957589583 0.024798216777388048 0.020638011245172345 -0.04100568580940371 -0.028369603059994995 -19.747289670477816 0.008779144659568312 -0.02892688387062868 -0.030751125436428266 -0.042593738629702116 -0.015600479309893053 -0.040259711371763415 -0.04971296276571197 0.015852123098588834 24.04650559096813 -0.01940676144966272 -0.03533042711373732 28.825694304270886 -0.0015237486397151345 -0.0010295276073735034 28.891360631544583 -0.010785996453271003 0.003993608142417638 4.464100188820714 1.162418017235363 13.062065812304176 -68.59031881019101 30.321694979720053 -7.2862492197991715 3.8853296623907156 -5.662217020231315 -51.51550115818252 -17.920390693150082 -5.233086510319686 6.196891626175189 -0.5002905883651644 0.09364773303046012 -8.121522276221059 -0.014990934152641595 -0.0021011357019187003 44.57444150127355 0.004941864195576141 -0.02881742223312423 44.54933910150986 12.441746900104796 0.014982778940073228 0.0057215998892466945 -0.010897017338604506 0.03400667260443581 0.020325286732850046 0.008632995540542069 -0.012534606391314691 0.024814992177814858 11.104703793131147 0.029260249392507997 -0.01790819174531251 0.022667828805293094 0.025513510817161734 0.015124902614426505 -0.01526636959715294 -0.030620178580404726 -0.01133526499899923 4.7609962184438075 -0.01254831446568924 -0.006036673700048216 0.019001610964445623 -0.010731538096996965 -0.03440721747631081 0.0011643775795865405 -0.01562020733472951 -0.029180667423812572 -5.616070249665607 0.00576736566286031 0.004416899297247361 -6.7313833735834585 -0.04330220685796079 -0.01484767867955751 -6.684357567413223 -0.027819305275967966 -0.02743365749529105 -0.032320797061868634 0.011832557497076792 -0.042326018792455775 8.091329069080885 3.453249324186846 -19.25527497969088 0.005678718767330395 10.43119438047941 -0.03507552954472766 -5.5777237924442655 -15.627046465144788 3.1425365745035907 -0.04024735770409187 0.020026173376325694 -0.040683130940804384 -0.023149784705965314 4.678037395696257 0.022698371067607925 12.480905390039046 -8.239570298280599 6.876420484358264 -0.028566667454637394 46.418778155134724 -0.03930146619219037 -4.349790513812343 -14.761658346381566 -3.881893480565958 -0.0040065928396845 0.015867910418513532 -0.00879749474874209 0.018048384250093752 -10.745593773500053 0.045737318299321886 
-0.024971475079786754 -0.004772216212401973 0.008470478268564402 0.0022820850045282342 -0.03499589551174301 -0.021237120100837514 -1.8306272351957258 1.6239771612863982 -0.9262555658492854 -1.0530469398575661 3.913540972526701 0.388412230449075 -1.149062718543424 -1.4400475723278376 -1.0541442580877163 0.7759650362443066 0.614097478019995 -0.7938139850308176 0.20863979234217844 11.914525253094576 -1.5379900326223563 -0.07976517041652763 -1.0458041261708475 -5.330140428572963 0.5285649025008082 -16.632447740761542 -0.46255183565896135 -3.8187724431949293 1.339364159590226 -15.15645083867634 71.1627117818204 26.42430201684131 1.846621511019002 -1.040406115200047 4.090258416193526 39.45432964262769 22.040868423810785 -0.14284420558896982 -5.004714309425378 4.569232196773681 -0.10893442343155732 -1.5871335256482393 -0.04042538914670334 -0.02291585647363202 -56.20447022180148 -0.004305865782375671 -0.034949681499472814 -56.25517504019391 -38.80301426178858 -0.011260359642625074 0.021108414789175137 -0.03297060963161413 0.011343359457482794 0.04348170079775043 -0.035028158710878464 0.014081722363079113 0.021128759190998055 -36.71222994783724 -0.029851484961903103 0.015740012626876798 0.03284088842473467 -0.022061002286875818 -0.03041426560888835 0.04565581000825434 -0.03184759435460633 -0.031155051639543695 -19.733151305513505 0.00792223227437471 0.04254637707482751 -0.02363361594446749 -0.026294977651864674 -0.028317388048574824 -0.012586507016433632 -0.011579612496144365 -0.01390146313920045 24.038574592221067 0.04296116129727581 -0.0037487130767072823 28.878009710478757 0.024021723873871782 -0.03719529827452801 28.85608157292562 0.021432127387058703 -0.02205511460940492 4.085224158590088 1.060253159367654 13.145605972977998 -69.28055239061769 30.077759981918618 -5.774044387672776 3.947599111222165 -5.577734878818925 -48.32179511156629 -17.584069955525454 -3.9059282454467517 5.23057010938063 -0.44250004422920897 0.0925542228918463 -8.144943721057595 -0.026241229287815335 -0.030955907467849875 44.526482108804764 -0.004529149942114958 -0.003617782526267153 44.59786843405139 12.480539712692382 -0.011648847042455513 -0.0017165043972065613 -0.01578594230200647 -0.015157760960966547 0.009018166647236113 -0.01067135014110051 0.005365118080352206 0.04962275134533856 11.08242617475266 -0.014037588911126284 0.047649000882672696 -0.025407481172283128 -0.011117693610626828 0.0428617830976995 -0.0301470341849268 -0.004863340283966969 0.02534293521476875 4.760369817455727 0.04791375864622021 -0.021603680994347254 -0.006368641209392442 0.04287892342809164 -0.03549785338796972 0.00039553786483457755 0.03265867248675383 0.010108743172081937 -5.642175963243763 -0.0037703246439742483 -0.020279202623876346 -6.7145265176549085 -0.017735478361882905 -0.013768559626514021 -6.712444457928044 0.03164719813622356 0.010483778268011642 -0.032351427991080504 0.028350403165496297 -0.042956428004867694 8.063242630260294 3.507039583686014 -19.24126298188472 -0.006179560512548441 10.38447789359327 -0.0052103906897422725 -5.659713260910786 -15.640284870483967 3.169429289100338 0.01412992556829443 -0.005636416910772006 -0.016427430603970023 -0.0035559051942155974 4.746098615844448 -0.04596052706918482 12.454446415888844 -8.279394721138823 6.881324661489622 0.01752166556473823 46.3833280875802 -0.014164524132366928 -4.355162245077387 -14.749693598340814 -3.854249305994662 -0.005958352439076664 0.015147098326212445 -0.033755186473699704 -0.009601014822971422 -10.754364872696234 -0.0007735605088971117 
